<mxfile host="app.diagrams.net" modified="2024-04-24T08:14:19.727Z" agent="Mozilla/5.0 (Macintosh; Intel Mac OS X 10_15_7) AppleWebKit/605.1.15 (KHTML, like Gecko) Version/16.5 Safari/605.1.15" etag="vtbZxrGXwm9zJnQ4KK8M" version="24.2.7" type="github">
  <diagram name="Seite-1" id="v4UaPeo24k2mPSnF0JlL">
    <mxGraphModel dx="954" dy="647" grid="1" gridSize="10" guides="1" tooltips="1" connect="1" arrows="1" fold="1" page="1" pageScale="1" pageWidth="827" pageHeight="1169" math="0" shadow="0">
      <root>
        <mxCell id="0" />
        <mxCell id="1" parent="0" />
        <mxCell id="b5Mn8VD67eUkxjVx9ED7-8" style="edgeStyle=orthogonalEdgeStyle;rounded=0;orthogonalLoop=1;jettySize=auto;html=1;exitX=1;exitY=0.5;exitDx=0;exitDy=0;entryX=0;entryY=0.5;entryDx=0;entryDy=0;endArrow=none;endFill=0;" edge="1" parent="1" source="b5Mn8VD67eUkxjVx9ED7-1" target="b5Mn8VD67eUkxjVx9ED7-3">
          <mxGeometry relative="1" as="geometry" />
        </mxCell>
        <mxCell id="b5Mn8VD67eUkxjVx9ED7-15" value="1" style="edgeLabel;html=1;align=center;verticalAlign=middle;resizable=0;points=[];fontFamily=Helvetica;fontSize=11;fontColor=default;labelBackgroundColor=default;" vertex="1" connectable="0" parent="b5Mn8VD67eUkxjVx9ED7-8">
          <mxGeometry x="0.775" relative="1" as="geometry">
            <mxPoint y="-10" as="offset" />
          </mxGeometry>
        </mxCell>
        <mxCell id="b5Mn8VD67eUkxjVx9ED7-1" value="Mitarbeiter" style="rounded=0;whiteSpace=wrap;html=1;fillColor=#f8cecc;strokeColor=#b85450;" vertex="1" parent="1">
          <mxGeometry x="40" y="110" width="120" height="60" as="geometry" />
        </mxCell>
        <mxCell id="b5Mn8VD67eUkxjVx9ED7-2" value="Abteilung" style="rounded=0;whiteSpace=wrap;html=1;fillColor=#f8cecc;strokeColor=#b85450;" vertex="1" parent="1">
          <mxGeometry x="610" y="110" width="120" height="60" as="geometry" />
        </mxCell>
        <mxCell id="b5Mn8VD67eUkxjVx9ED7-9" style="edgeStyle=orthogonalEdgeStyle;rounded=0;orthogonalLoop=1;jettySize=auto;html=1;exitX=1;exitY=0.5;exitDx=0;exitDy=0;entryX=0;entryY=0.5;entryDx=0;entryDy=0;endArrow=none;endFill=0;" edge="1" parent="1" source="b5Mn8VD67eUkxjVx9ED7-3" target="b5Mn8VD67eUkxjVx9ED7-2">
          <mxGeometry relative="1" as="geometry" />
        </mxCell>
        <mxCell id="b5Mn8VD67eUkxjVx9ED7-16" value="1" style="edgeLabel;html=1;align=center;verticalAlign=middle;resizable=0;points=[];fontFamily=Helvetica;fontSize=11;fontColor=default;labelBackgroundColor=default;" vertex="1" connectable="0" parent="b5Mn8VD67eUkxjVx9ED7-9">
          <mxGeometry x="0.7647" y="-1" relative="1" as="geometry">
            <mxPoint y="-11" as="offset" />
          </mxGeometry>
        </mxCell>
        <mxCell id="b5Mn8VD67eUkxjVx9ED7-17" value="N" style="edgeLabel;html=1;align=center;verticalAlign=middle;resizable=0;points=[];fontFamily=Helvetica;fontSize=11;fontColor=default;labelBackgroundColor=default;" vertex="1" connectable="0" parent="b5Mn8VD67eUkxjVx9ED7-9">
          <mxGeometry x="-0.8471" relative="1" as="geometry">
            <mxPoint y="-10" as="offset" />
          </mxGeometry>
        </mxCell>
        <mxCell id="b5Mn8VD67eUkxjVx9ED7-14" style="edgeStyle=orthogonalEdgeStyle;rounded=0;orthogonalLoop=1;jettySize=auto;html=1;exitX=0.5;exitY=1;exitDx=0;exitDy=0;entryX=0.5;entryY=0;entryDx=0;entryDy=0;endArrow=none;endFill=0;" edge="1" parent="1" source="b5Mn8VD67eUkxjVx9ED7-3" target="b5Mn8VD67eUkxjVx9ED7-4">
          <mxGeometry relative="1" as="geometry" />
        </mxCell>
        <mxCell id="b5Mn8VD67eUkxjVx9ED7-18" value="N" style="edgeLabel;html=1;align=center;verticalAlign=middle;resizable=0;points=[];fontFamily=Helvetica;fontSize=11;fontColor=default;labelBackgroundColor=default;" vertex="1" connectable="0" parent="b5Mn8VD67eUkxjVx9ED7-14">
          <mxGeometry x="-0.8429" y="1" relative="1" as="geometry">
            <mxPoint x="9" as="offset" />
          </mxGeometry>
        </mxCell>
        <mxCell id="b5Mn8VD67eUkxjVx9ED7-37" value="" style="edgeStyle=orthogonalEdgeStyle;rounded=0;orthogonalLoop=1;jettySize=auto;html=1;strokeColor=default;align=center;verticalAlign=middle;fontFamily=Helvetica;fontSize=11;fontColor=default;labelBackgroundColor=default;endArrow=none;endFill=0;" edge="1" parent="1" source="b5Mn8VD67eUkxjVx9ED7-3" target="b5Mn8VD67eUkxjVx9ED7-5">
          <mxGeometry relative="1" as="geometry" />
        </mxCell>
        <mxCell id="b5Mn8VD67eUkxjVx9ED7-3" value="Server" style="rounded=0;whiteSpace=wrap;html=1;fillColor=#f8cecc;strokeColor=#b85450;" vertex="1" parent="1">
          <mxGeometry x="320" y="110" width="120" height="60" as="geometry" />
        </mxCell>
        <mxCell id="b5Mn8VD67eUkxjVx9ED7-4" value="BÃ¼ro" style="rounded=0;whiteSpace=wrap;html=1;fillColor=#f8cecc;strokeColor=#b85450;" vertex="1" parent="1">
          <mxGeometry x="320" y="330" width="120" height="60" as="geometry" />
        </mxCell>
        <mxCell id="b5Mn8VD67eUkxjVx9ED7-5" value="nutzt" style="rhombus;whiteSpace=wrap;html=1;fillColor=#d5e8d4;strokeColor=#82b366;" vertex="1" parent="1">
          <mxGeometry x="200" y="100" width="80" height="80" as="geometry" />
        </mxCell>
        <mxCell id="b5Mn8VD67eUkxjVx9ED7-6" value="besitzt" style="rhombus;whiteSpace=wrap;html=1;fillColor=#d5e8d4;strokeColor=#82b366;" vertex="1" parent="1">
          <mxGeometry x="490" y="100" width="80" height="80" as="geometry" />
        </mxCell>
        <mxCell id="b5Mn8VD67eUkxjVx9ED7-7" value="steht" style="rhombus;whiteSpace=wrap;html=1;fillColor=#d5e8d4;strokeColor=#82b366;" vertex="1" parent="1">
          <mxGeometry x="340" y="200" width="80" height="80" as="geometry" />
        </mxCell>
        <mxCell id="b5Mn8VD67eUkxjVx9ED7-19" value="1" style="text;html=1;align=center;verticalAlign=middle;resizable=0;points=[];autosize=1;strokeColor=none;fillColor=none;fontFamily=Helvetica;fontSize=11;fontColor=default;labelBackgroundColor=default;" vertex="1" parent="1">
          <mxGeometry x="375" y="278" width="30" height="30" as="geometry" />
        </mxCell>
        <mxCell id="b5Mn8VD67eUkxjVx9ED7-20" value="N" style="text;html=1;align=center;verticalAlign=middle;resizable=0;points=[];autosize=1;strokeColor=none;fillColor=none;fontFamily=Helvetica;fontSize=11;fontColor=default;labelBackgroundColor=default;" vertex="1" parent="1">
          <mxGeometry x="165" y="118" width="30" height="30" as="geometry" />
        </mxCell>
        <mxCell id="b5Mn8VD67eUkxjVx9ED7-21" style="edgeStyle=orthogonalEdgeStyle;rounded=0;orthogonalLoop=1;jettySize=auto;html=1;exitX=1;exitY=0.5;exitDx=0;exitDy=0;entryX=0;entryY=0.5;entryDx=0;entryDy=0;endArrow=none;endFill=0;" edge="1" parent="1" source="b5Mn8VD67eUkxjVx9ED7-23" target="b5Mn8VD67eUkxjVx9ED7-30">
          <mxGeometry relative="1" as="geometry" />
        </mxCell>
        <mxCell id="b5Mn8VD67eUkxjVx9ED7-22" value="(3,n)" style="edgeLabel;html=1;align=center;verticalAlign=middle;resizable=0;points=[];fontFamily=Helvetica;fontSize=11;fontColor=default;labelBackgroundColor=default;" vertex="1" connectable="0" parent="b5Mn8VD67eUkxjVx9ED7-21">
          <mxGeometry x="0.775" relative="1" as="geometry">
            <mxPoint y="-10" as="offset" />
          </mxGeometry>
        </mxCell>
        <mxCell id="b5Mn8VD67eUkxjVx9ED7-23" value="Mitarbeiter" style="rounded=0;whiteSpace=wrap;html=1;fillColor=#f8cecc;strokeColor=#b85450;" vertex="1" parent="1">
          <mxGeometry x="35" y="450" width="120" height="60" as="geometry" />
        </mxCell>
        <mxCell id="b5Mn8VD67eUkxjVx9ED7-24" value="Abteilung" style="rounded=0;whiteSpace=wrap;html=1;fillColor=#f8cecc;strokeColor=#b85450;" vertex="1" parent="1">
          <mxGeometry x="605" y="450" width="120" height="60" as="geometry" />
        </mxCell>
        <mxCell id="b5Mn8VD67eUkxjVx9ED7-25" style="edgeStyle=orthogonalEdgeStyle;rounded=0;orthogonalLoop=1;jettySize=auto;html=1;exitX=1;exitY=0.5;exitDx=0;exitDy=0;entryX=0;entryY=0.5;entryDx=0;entryDy=0;endArrow=none;endFill=0;" edge="1" parent="1" source="b5Mn8VD67eUkxjVx9ED7-30" target="b5Mn8VD67eUkxjVx9ED7-24">
          <mxGeometry relative="1" as="geometry" />
        </mxCell>
        <mxCell id="b5Mn8VD67eUkxjVx9ED7-26" value="(1,n)" style="edgeLabel;html=1;align=center;verticalAlign=middle;resizable=0;points=[];fontFamily=Helvetica;fontSize=11;fontColor=default;labelBackgroundColor=default;" vertex="1" connectable="0" parent="b5Mn8VD67eUkxjVx9ED7-25">
          <mxGeometry x="0.7647" y="-1" relative="1" as="geometry">
            <mxPoint y="-11" as="offset" />
          </mxGeometry>
        </mxCell>
        <mxCell id="b5Mn8VD67eUkxjVx9ED7-27" value="(0,1)" style="edgeLabel;html=1;align=center;verticalAlign=middle;resizable=0;points=[];fontFamily=Helvetica;fontSize=11;fontColor=default;labelBackgroundColor=default;" vertex="1" connectable="0" parent="b5Mn8VD67eUkxjVx9ED7-25">
          <mxGeometry x="-0.8471" relative="1" as="geometry">
            <mxPoint y="-10" as="offset" />
          </mxGeometry>
        </mxCell>
        <mxCell id="b5Mn8VD67eUkxjVx9ED7-28" style="edgeStyle=orthogonalEdgeStyle;rounded=0;orthogonalLoop=1;jettySize=auto;html=1;exitX=0.5;exitY=1;exitDx=0;exitDy=0;entryX=0.5;entryY=0;entryDx=0;entryDy=0;endArrow=none;endFill=0;" edge="1" parent="1" source="b5Mn8VD67eUkxjVx9ED7-30" target="b5Mn8VD67eUkxjVx9ED7-31">
          <mxGeometry relative="1" as="geometry" />
        </mxCell>
        <mxCell id="b5Mn8VD67eUkxjVx9ED7-29" value="(1,1)" style="edgeLabel;html=1;align=center;verticalAlign=middle;resizable=0;points=[];fontFamily=Helvetica;fontSize=11;fontColor=default;labelBackgroundColor=default;" vertex="1" connectable="0" parent="b5Mn8VD67eUkxjVx9ED7-28">
          <mxGeometry x="-0.8429" y="1" relative="1" as="geometry">
            <mxPoint x="14" as="offset" />
          </mxGeometry>
        </mxCell>
        <mxCell id="b5Mn8VD67eUkxjVx9ED7-30" value="Server" style="rounded=0;whiteSpace=wrap;html=1;fillColor=#f8cecc;strokeColor=#b85450;" vertex="1" parent="1">
          <mxGeometry x="315" y="450" width="120" height="60" as="geometry" />
        </mxCell>
        <mxCell id="b5Mn8VD67eUkxjVx9ED7-31" value="BÃ¼ro" style="rounded=0;whiteSpace=wrap;html=1;fillColor=#f8cecc;strokeColor=#b85450;" vertex="1" parent="1">
          <mxGeometry x="315" y="670" width="120" height="60" as="geometry" />
        </mxCell>
        <mxCell id="b5Mn8VD67eUkxjVx9ED7-32" value="nutzt" style="rhombus;whiteSpace=wrap;html=1;fillColor=#d5e8d4;strokeColor=#82b366;" vertex="1" parent="1">
          <mxGeometry x="195" y="440" width="80" height="80" as="geometry" />
        </mxCell>
        <mxCell id="b5Mn8VD67eUkxjVx9ED7-33" value="besitzt" style="rhombus;whiteSpace=wrap;html=1;fillColor=#d5e8d4;strokeColor=#82b366;" vertex="1" parent="1">
          <mxGeometry x="485" y="440" width="80" height="80" as="geometry" />
        </mxCell>
        <mxCell id="b5Mn8VD67eUkxjVx9ED7-34" value="steht" style="rhombus;whiteSpace=wrap;html=1;fillColor=#d5e8d4;strokeColor=#82b366;" vertex="1" parent="1">
          <mxGeometry x="335" y="540" width="80" height="80" as="geometry" />
        </mxCell>
        <mxCell id="b5Mn8VD67eUkxjVx9ED7-35" value="(1,n)" style="text;html=1;align=center;verticalAlign=middle;resizable=0;points=[];autosize=1;strokeColor=none;fillColor=none;fontFamily=Helvetica;fontSize=11;fontColor=default;labelBackgroundColor=default;" vertex="1" parent="1">
          <mxGeometry x="365" y="630" width="50" height="30" as="geometry" />
        </mxCell>
        <mxCell id="b5Mn8VD67eUkxjVx9ED7-36" value="(1,1)" style="text;html=1;align=center;verticalAlign=middle;resizable=0;points=[];autosize=1;strokeColor=none;fillColor=none;fontFamily=Helvetica;fontSize=11;fontColor=default;labelBackgroundColor=default;" vertex="1" parent="1">
          <mxGeometry x="150" y="458" width="50" height="30" as="geometry" />
        </mxCell>
      </root>
    </mxGraphModel>
  </diagram>
</mxfile>
